<svg id="svg" version="1.1" xmlns="http://www.w3.org/2000/svg" xmlns:xlink="http://www.w3.org/1999/xlink" width="400" height="400" viewBox="0, 0, 400,400"><g id="svgg"><path id="path0" d="M235.600 0.600 C 235.600 0.930,235.870 1.200,236.200 1.200 C 236.530 1.200,236.800 0.930,236.800 0.600 C 236.800 0.270,236.530 0.000,236.200 0.000 C 235.870 0.000,235.600 0.270,235.600 0.600 M237.200 0.600 C 237.200 1.053,237.689 1.200,239.200 1.200 C 240.711 1.200,241.200 1.053,241.200 0.600 C 241.200 0.147,240.711 0.000,239.200 0.000 C 237.689 0.000,237.200 0.147,237.200 0.600 M150.500 1.476 C 150.885 1.576,151.515 1.576,151.900 1.476 C 152.285 1.375,151.970 1.293,151.200 1.293 C 150.430 1.293,150.115 1.375,150.500 1.476 M246.406 1.900 C 246.411 2.498,246.469 2.513,246.800 2.000 C 247.134 1.484,247.343 1.668,247.275 2.417 C 247.264 2.536,247.622 2.662,248.070 2.695 C 248.852 2.754,248.857 2.726,248.180 1.978 C 247.305 1.011,246.398 0.970,246.406 1.900 M249.200 1.576 C 249.200 1.783,249.380 2.064,249.600 2.200 C 249.820 2.336,250.000 2.627,250.000 2.847 C 250.000 3.067,249.820 3.136,249.600 3.000 C 249.380 2.864,249.200 2.943,249.200 3.176 C 249.200 3.409,249.515 3.615,249.900 3.634 C 253.292 3.797,256.321 3.845,255.155 3.717 C 254.096 3.601,253.590 3.296,253.263 2.579 C 252.606 1.136,250.686 1.690,251.098 3.204 C 251.240 3.724,251.209 3.726,250.853 3.213 C 250.599 2.847,250.586 2.458,250.819 2.177 C 251.025 1.929,251.075 1.608,250.930 1.463 C 250.529 1.062,249.200 1.149,249.200 1.576 M147.186 2.217 C 146.769 2.719,146.771 2.924,147.196 3.317 C 147.578 3.671,147.646 3.674,147.452 3.327 C 147.306 3.067,147.589 2.573,148.082 2.227 C 148.751 1.759,148.816 1.600,148.338 1.600 C 147.986 1.600,147.468 1.878,147.186 2.217 M252.946 3.288 C 252.796 3.529,252.565 3.472,252.356 3.143 C 251.809 2.280,251.945 1.857,252.596 2.396 C 252.923 2.668,253.081 3.069,252.946 3.288 M144.500 3.876 C 144.885 3.976,145.515 3.976,145.900 3.876 C 146.285 3.775,145.970 3.693,145.200 3.693 C 144.430 3.693,144.115 3.775,144.500 3.876 M125.604 9.316 C 124.245 10.003,124.086 11.040,125.339 11.040 C 125.985 11.040,126.275 10.834,126.214 10.420 C 126.164 10.079,126.410 9.581,126.761 9.313 C 127.599 8.673,126.870 8.675,125.604 9.316 M273.803 9.595 C 273.658 9.830,273.837 9.884,274.245 9.727 C 274.747 9.535,274.844 9.606,274.604 9.994 C 274.393 10.336,274.431 10.428,274.714 10.253 C 274.954 10.105,275.336 10.302,275.563 10.692 C 276.103 11.619,276.123 10.978,275.586 9.974 C 275.143 9.146,274.204 8.947,273.803 9.595 M119.592 12.210 C 119.314 12.545,119.202 12.935,119.343 13.076 C 119.484 13.218,119.600 13.101,119.600 12.818 C 119.600 12.410,119.746 12.416,120.300 12.851 C 120.925 13.342,120.945 13.330,120.483 12.739 C 120.061 12.199,120.061 12.040,120.483 11.870 C 120.790 11.747,120.817 11.650,120.549 11.632 C 120.301 11.614,119.870 11.874,119.592 12.210 M279.517 11.870 C 279.939 12.040,279.939 12.199,279.517 12.739 C 279.055 13.330,279.075 13.342,279.700 12.851 C 280.254 12.416,280.400 12.410,280.400 12.818 C 280.400 13.101,280.516 13.218,280.657 13.076 C 280.993 12.740,280.034 11.591,279.451 11.632 C 279.183 11.650,279.210 11.747,279.517 11.870 M114.184 14.427 C 114.039 14.661,114.016 14.949,114.133 15.067 C 114.420 15.353,115.200 14.848,115.200 14.376 C 115.200 13.865,114.509 13.899,114.184 14.427 M284.875 14.425 C 284.971 14.714,285.286 15.029,285.575 15.125 C 285.875 15.225,286.025 15.075,285.925 14.775 C 285.829 14.486,285.514 14.171,285.225 14.075 C 284.925 13.975,284.775 14.125,284.875 14.425 M109.211 16.987 C 108.943 17.309,108.817 17.804,108.931 18.087 C 109.063 18.417,109.148 18.358,109.168 17.920 C 109.186 17.546,109.515 17.056,109.900 16.832 C 110.285 16.608,110.397 16.419,110.149 16.412 C 109.901 16.405,109.479 16.664,109.211 16.987 M290.100 16.832 C 290.485 17.056,290.814 17.546,290.832 17.920 C 290.852 18.358,290.937 18.417,291.069 18.087 C 291.309 17.491,290.511 16.394,289.851 16.412 C 289.603 16.419,289.715 16.608,290.100 16.832 M104.138 19.817 C 103.778 20.755,104.167 20.866,104.719 19.982 C 105.028 19.487,105.054 19.200,104.791 19.200 C 104.562 19.200,104.268 19.478,104.138 19.817 M100.305 22.029 C 98.923 22.834,98.699 23.901,99.913 23.892 C 100.511 23.888,100.775 23.805,100.500 23.709 C 100.225 23.612,100.000 23.358,100.000 23.143 C 100.000 22.928,100.208 22.881,100.462 23.038 C 100.769 23.228,100.814 23.146,100.596 22.794 C 100.361 22.413,100.450 22.333,100.914 22.512 C 101.367 22.686,101.493 22.587,101.337 22.180 C 101.214 21.861,101.089 21.605,101.057 21.612 C 101.026 21.619,100.687 21.807,100.305 22.029 M298.660 22.187 C 298.507 22.586,298.636 22.684,299.086 22.512 C 299.550 22.333,299.639 22.413,299.404 22.794 C 299.186 23.146,299.231 23.228,299.538 23.038 C 299.792 22.881,300.000 22.928,300.000 23.143 C 300.000 23.358,299.775 23.612,299.500 23.709 C 299.225 23.805,299.489 23.888,300.087 23.892 C 301.023 23.899,301.119 23.796,300.778 23.159 C 300.185 22.051,298.933 21.476,298.660 22.187 M92.012 26.784 C 91.059 27.387,91.709 27.514,92.800 26.939 C 93.351 26.648,93.531 26.412,93.200 26.412 C 92.870 26.412,92.335 26.580,92.012 26.784 M307.200 26.939 C 307.750 27.229,308.285 27.396,308.388 27.311 C 308.670 27.080,307.490 26.412,306.800 26.412 C 306.469 26.412,306.649 26.648,307.200 26.939 M85.611 31.645 C 84.616 32.042,84.017 32.686,84.006 33.370 C 84.003 33.573,84.315 33.430,84.700 33.052 C 85.085 32.673,85.760 32.107,86.200 31.794 C 87.130 31.133,86.986 31.097,85.611 31.645 M313.800 31.779 C 314.240 32.100,314.915 32.673,315.300 33.052 C 315.685 33.430,315.997 33.573,315.994 33.370 C 315.982 32.642,315.365 32.043,314.192 31.623 C 313.095 31.229,313.064 31.242,313.800 31.779 M75.604 39.316 C 74.467 39.891,73.999 41.188,74.981 41.044 C 75.875 40.913,77.519 38.728,76.665 38.806 C 76.629 38.809,76.152 39.039,75.604 39.316 M323.592 39.391 C 323.870 39.726,323.950 40.000,323.769 40.000 C 323.228 40.000,324.342 40.945,324.996 41.041 C 326.396 41.246,325.460 39.633,323.843 39.053 C 323.202 38.823,323.164 38.874,323.592 39.391 M62.139 50.236 C 61.766 50.807,61.024 51.439,60.491 51.641 C 59.959 51.844,59.427 52.375,59.310 52.821 C 59.194 53.267,58.604 53.888,58.000 54.200 C 57.396 54.512,56.802 55.148,56.681 55.613 C 56.474 56.404,56.515 56.420,57.330 55.861 C 57.808 55.533,58.185 55.115,58.167 54.932 C 58.130 54.569,59.836 52.843,60.307 52.767 C 60.468 52.741,60.555 52.558,60.500 52.360 C 60.445 52.162,60.630 52.000,60.912 52.000 C 61.193 52.000,61.676 51.650,61.985 51.221 C 62.293 50.793,62.721 50.551,62.935 50.683 C 63.150 50.816,63.196 50.717,63.038 50.462 C 62.871 50.191,63.001 50.000,63.353 50.000 C 63.683 50.000,64.064 49.820,64.200 49.600 C 64.775 48.670,62.758 49.293,62.139 50.236 M336.000 49.600 C 336.000 49.820,336.281 50.000,336.624 50.000 C 336.993 50.000,337.131 50.188,336.962 50.462 C 336.804 50.717,336.850 50.816,337.065 50.683 C 337.279 50.551,337.707 50.793,338.015 51.221 C 338.324 51.650,338.807 52.000,339.088 52.000 C 339.370 52.000,339.555 52.135,339.500 52.300 C 339.445 52.465,339.532 52.600,339.692 52.600 C 339.853 52.600,340.294 53.050,340.672 53.600 C 341.050 54.150,341.684 54.835,342.080 55.123 C 343.063 55.837,343.077 58.885,342.100 59.651 C 341.472 60.143,341.454 60.131,341.924 59.530 C 342.579 58.693,342.399 55.502,341.690 55.361 C 341.410 55.305,341.365 55.352,341.590 55.463 C 341.816 55.575,342.000 56.472,342.000 57.457 C 342.000 58.442,341.856 59.158,341.680 59.049 C 341.504 58.941,341.360 59.290,341.360 59.826 C 341.360 60.362,341.426 60.800,341.506 60.800 C 343.502 60.800,344.031 55.763,342.164 54.539 C 341.593 54.166,340.967 53.438,340.771 52.923 C 340.575 52.407,339.993 51.825,339.477 51.629 C 338.962 51.433,338.234 50.807,337.861 50.236 C 337.195 49.220,336.000 48.811,336.000 49.600 M54.632 57.676 C 53.749 58.937,54.144 59.020,55.339 57.824 C 55.995 57.169,56.162 56.800,55.804 56.800 C 55.497 56.800,54.969 57.194,54.632 57.676 M44.412 69.184 C 44.088 69.389,43.963 69.696,44.133 69.867 C 44.304 70.037,44.569 69.984,44.722 69.748 C 44.875 69.513,45.270 69.217,45.600 69.092 C 46.133 68.889,46.133 68.860,45.600 68.838 C 45.270 68.824,44.735 68.980,44.412 69.184 M170.832 69.713 C 170.814 70.105,170.395 70.589,169.900 70.788 C 169.291 71.032,169.210 71.157,169.651 71.175 C 170.474 71.207,171.341 70.190,171.069 69.513 C 170.942 69.196,170.851 69.272,170.832 69.713 M42.229 72.229 C 41.883 72.574,41.603 73.069,41.606 73.329 C 41.610 73.643,41.725 73.622,41.951 73.266 C 42.137 72.972,42.404 72.747,42.545 72.766 C 42.685 72.785,42.785 72.685,42.766 72.545 C 42.747 72.404,42.972 72.137,43.266 71.951 C 43.622 71.725,43.643 71.610,43.329 71.606 C 43.069 71.603,42.574 71.883,42.229 72.229 M155.600 73.957 C 155.600 74.227,155.416 74.333,155.190 74.194 C 154.965 74.055,154.830 74.179,154.890 74.470 C 154.951 74.762,154.762 74.951,154.470 74.890 C 154.179 74.830,154.055 74.965,154.194 75.190 C 154.333 75.416,154.227 75.600,153.957 75.600 C 153.687 75.600,153.561 75.694,153.676 75.809 C 153.791 75.925,154.186 75.903,154.554 75.762 C 155.308 75.473,156.187 74.054,155.832 73.699 C 155.705 73.571,155.600 73.687,155.600 73.957 M244.032 73.900 C 243.991 74.548,245.452 76.009,246.100 75.968 C 246.497 75.943,246.497 75.895,246.098 75.734 C 245.821 75.623,245.700 75.363,245.827 75.156 C 245.955 74.949,245.821 74.830,245.530 74.890 C 245.238 74.951,245.049 74.762,245.110 74.470 C 245.170 74.179,245.051 74.045,244.844 74.173 C 244.637 74.300,244.377 74.179,244.266 73.902 C 244.105 73.503,244.057 73.503,244.032 73.900 M39.042 77.435 C 38.679 78.380,38.750 78.878,39.207 78.596 C 39.430 78.458,39.519 78.193,39.404 78.007 C 39.289 77.821,39.412 77.596,39.678 77.507 C 40.017 77.394,40.030 77.266,39.722 77.076 C 39.481 76.927,39.175 77.088,39.042 77.435 M142.665 79.426 C 142.928 80.110,142.073 80.558,141.466 80.055 C 141.099 79.750,140.952 79.839,140.911 80.390 C 140.862 81.043,141.000 81.089,141.987 80.745 C 143.140 80.343,143.915 78.933,142.983 78.933 C 142.704 78.933,142.561 79.155,142.665 79.426 M256.695 79.642 C 256.797 80.031,257.391 80.528,258.016 80.746 C 258.905 81.056,259.109 81.028,258.952 80.619 C 258.842 80.332,258.448 80.120,258.076 80.148 C 257.688 80.178,257.419 79.930,257.444 79.567 C 257.469 79.218,257.269 78.933,256.999 78.933 C 256.728 78.933,256.592 79.249,256.695 79.642 M320.832 82.080 C 320.814 82.454,320.485 82.944,320.100 83.168 C 319.715 83.392,319.603 83.581,319.851 83.588 C 320.511 83.606,321.309 82.509,321.069 81.913 C 320.937 81.583,320.852 81.642,320.832 82.080 M32.012 86.784 C 31.059 87.387,31.709 87.514,32.800 86.939 C 33.351 86.648,33.531 86.412,33.200 86.412 C 32.870 86.412,32.335 86.580,32.012 86.784 M27.226 94.376 C 26.752 94.676,26.742 94.848,27.171 95.365 C 27.457 95.709,27.859 95.887,28.065 95.760 C 28.288 95.622,28.262 95.315,27.998 94.998 C 27.663 94.594,27.730 94.422,28.279 94.280 C 28.766 94.154,28.805 94.080,28.400 94.053 C 28.070 94.030,27.542 94.176,27.226 94.376 M304.400 99.872 C 303.513 100.810,303.497 100.878,304.253 100.476 C 304.722 100.226,305.211 99.747,305.340 99.411 C 305.654 98.594,305.568 98.636,304.400 99.872 M302.000 102.272 C 301.113 103.210,301.097 103.278,301.853 102.876 C 302.322 102.626,302.811 102.147,302.940 101.811 C 303.254 100.994,303.168 101.036,302.000 102.272 M299.400 104.869 C 298.237 106.076,298.233 106.094,299.266 105.433 C 299.853 105.059,300.432 104.493,300.554 104.176 C 300.855 103.392,300.777 103.438,299.400 104.869 M295.105 106.283 C 295.602 106.379,296.322 106.375,296.705 106.275 C 297.087 106.175,296.680 106.096,295.800 106.101 C 294.920 106.105,294.607 106.187,295.105 106.283 M97.763 116.600 C 97.403 117.150,96.859 117.600,96.554 117.600 C 96.249 117.600,96.000 117.799,96.000 118.043 C 96.000 118.286,96.285 118.376,96.633 118.243 C 96.981 118.109,97.336 118.000,97.422 118.000 C 97.509 118.000,97.859 117.460,98.200 116.800 C 98.952 115.345,98.670 115.216,97.763 116.600 M94.094 119.367 C 93.623 120.118,93.653 120.800,94.155 120.800 C 94.766 120.800,95.600 119.984,95.600 119.387 C 95.600 118.809,94.452 118.794,94.094 119.367 M14.138 119.817 C 13.778 120.755,14.167 120.866,14.719 119.982 C 15.028 119.487,15.054 119.200,14.791 119.200 C 14.562 119.200,14.268 119.478,14.138 119.817 M91.360 122.280 C 91.360 123.282,91.963 123.477,92.720 122.720 C 93.477 121.963,93.282 121.360,92.280 121.360 C 91.587 121.360,91.360 121.587,91.360 122.280 M13.200 124.278 C 11.671 124.824,11.161 126.427,12.552 126.312 C 13.162 126.262,13.468 126.012,13.404 125.617 C 13.348 125.278,13.482 124.775,13.700 124.500 C 14.128 123.962,14.108 123.953,13.200 124.278 M88.048 129.100 C 87.833 129.485,87.554 129.755,87.428 129.700 C 87.303 129.645,87.215 129.715,87.234 129.855 C 87.253 129.996,87.028 130.263,86.734 130.449 C 86.316 130.714,86.341 130.789,86.851 130.794 C 87.209 130.797,87.676 130.575,87.889 130.300 C 88.352 129.702,88.844 128.400,88.607 128.400 C 88.515 128.400,88.263 128.715,88.048 129.100 M6.643 139.833 C 6.306 140.710,6.339 141.395,6.700 141.033 C 6.865 140.868,7.003 140.613,7.006 140.467 C 7.009 140.320,7.155 139.975,7.330 139.700 C 7.504 139.425,7.476 139.200,7.266 139.200 C 7.057 139.200,6.776 139.485,6.643 139.833 M79.670 146.053 C 79.158 146.684,78.888 147.194,79.070 147.187 C 79.441 147.173,80.956 145.212,80.739 145.025 C 80.663 144.959,80.181 145.422,79.670 146.053 M4.623 147.689 C 3.903 148.716,3.811 149.600,4.424 149.600 C 4.657 149.600,4.737 149.422,4.602 149.203 C 4.467 148.985,4.808 148.355,5.360 147.803 C 6.008 147.156,6.165 146.800,5.804 146.800 C 5.497 146.800,4.965 147.200,4.623 147.689 M77.100 153.064 C 76.222 153.527,76.013 153.901,76.064 154.922 L 76.128 156.200 76.287 154.938 C 76.404 153.999,76.696 153.612,77.423 153.430 C 77.960 153.295,78.400 153.008,78.400 152.792 C 78.400 152.577,78.355 152.419,78.300 152.442 C 78.245 152.466,77.705 152.746,77.100 153.064 M3.693 155.600 C 3.693 156.370,3.775 156.685,3.876 156.300 C 3.976 155.915,3.976 155.285,3.876 154.900 C 3.775 154.515,3.693 154.830,3.693 155.600 M2.423 158.855 C 1.553 160.282,1.344 161.600,1.987 161.600 C 2.201 161.600,2.266 161.317,2.134 160.971 C 2.000 160.622,2.288 159.807,2.781 159.140 C 3.270 158.478,3.574 157.841,3.457 157.723 C 3.339 157.606,2.874 158.115,2.423 158.855 M75.281 160.018 C 74.972 160.513,74.946 160.800,75.209 160.800 C 75.438 160.800,75.732 160.522,75.862 160.183 C 76.222 159.245,75.833 159.134,75.281 160.018 M223.706 161.876 L 210.411 162.011 209.760 163.005 C 209.401 163.552,208.782 164.000,208.383 164.000 C 206.342 164.000,206.418 162.671,206.405 198.788 C 206.393 228.851,206.458 232.401,207.025 232.967 C 207.596 233.538,213.431 233.600,267.029 233.600 L 326.400 233.600 326.400 236.150 C 326.400 238.634,326.370 238.706,325.259 238.928 C 324.187 239.143,324.103 239.307,323.858 241.678 C 323.702 243.186,323.358 244.377,323.003 244.641 C 322.012 245.376,321.139 247.997,321.256 249.890 C 321.341 251.269,321.202 251.767,320.645 252.079 C 319.472 252.735,318.800 254.961,318.800 258.187 L 318.800 261.200 317.600 261.200 L 316.400 261.200 316.400 263.775 L 316.400 266.349 315.100 266.475 C 313.974 266.583,313.802 266.747,313.816 267.700 C 313.830 268.714,313.546 268.993,312.658 268.833 C 311.794 268.678,311.200 269.816,311.200 271.622 C 311.200 273.424,311.130 273.555,310.100 273.673 C 309.188 273.778,308.979 274.018,308.876 275.076 C 308.775 276.125,308.562 276.374,307.678 276.476 C 306.836 276.573,306.560 276.859,306.399 277.800 C 306.253 278.660,305.941 279.036,305.298 279.128 C 304.731 279.208,304.309 279.624,304.150 280.257 C 304.011 280.811,303.458 281.426,302.911 281.634 C 302.367 281.841,301.827 282.375,301.710 282.821 C 301.594 283.267,300.987 283.896,300.362 284.219 C 299.419 284.707,299.182 285.146,298.962 286.803 C 298.702 288.765,298.326 289.104,296.700 288.847 C 296.535 288.821,296.400 289.340,296.400 290.000 C 296.400 291.020,296.247 291.200,295.379 291.200 C 294.610 291.200,294.258 291.489,293.950 292.371 C 293.691 293.114,293.114 293.691,292.371 293.950 C 291.489 294.258,291.200 294.610,291.200 295.379 C 291.200 296.247,291.020 296.400,290.000 296.400 C 288.933 296.400,288.800 296.533,288.800 297.600 C 288.800 298.661,288.664 298.800,287.625 298.800 C 286.592 298.800,286.436 298.957,286.325 300.100 C 286.215 301.248,286.075 301.385,285.133 301.276 C 283.641 301.102,278.800 305.923,278.800 307.584 C 278.800 308.619,278.658 308.716,276.784 308.964 C 275.183 309.177,274.678 309.430,274.330 310.195 C 274.027 310.858,273.504 311.195,272.645 311.279 C 271.621 311.379,271.378 311.595,271.273 312.500 C 271.191 313.213,270.910 313.601,270.473 313.602 C 268.668 313.608,266.799 314.466,266.565 315.395 C 266.385 316.115,266.009 316.386,265.062 316.477 C 264.293 316.552,263.779 316.834,263.746 317.200 C 263.717 317.530,263.672 318.025,263.646 318.300 C 263.614 318.646,262.767 318.801,260.900 318.802 C 257.302 318.805,255.274 319.399,254.722 320.612 C 254.481 321.141,254.121 321.475,253.923 321.352 C 252.992 320.777,249.547 321.687,249.200 322.600 C 248.918 323.342,248.444 323.569,246.726 323.783 C 243.909 324.134,242.479 324.720,242.186 325.643 C 241.946 326.399,240.584 326.619,237.449 326.407 C 236.381 326.335,236.312 326.417,236.478 327.553 L 236.658 328.777 231.629 328.889 L 226.600 329.000 226.473 330.100 L 226.347 331.200 219.561 331.200 C 212.528 331.200,210.279 331.609,209.752 332.982 C 209.328 334.085,186.000 333.896,186.000 332.790 C 186.000 331.551,184.595 331.249,178.737 331.232 C 173.838 331.218,173.355 331.151,172.851 330.409 C 172.549 329.964,172.054 329.600,171.751 329.600 C 171.448 329.600,171.200 329.409,171.200 329.175 C 171.200 328.941,170.885 328.782,170.500 328.821 C 167.254 329.151,163.600 328.759,163.600 328.080 C 163.600 326.735,162.746 326.400,159.320 326.400 C 156.034 326.400,156.000 326.390,156.000 325.387 C 156.000 324.263,155.830 324.171,153.080 323.802 C 151.551 323.597,151.086 323.351,150.798 322.594 C 150.491 321.787,150.069 321.602,148.004 321.369 C 146.250 321.170,145.462 320.890,145.181 320.364 C 144.659 319.389,142.387 318.805,139.100 318.802 C 137.233 318.801,136.386 318.646,136.354 318.300 C 136.328 318.025,136.283 317.530,136.254 317.200 C 136.220 316.828,135.698 316.552,134.880 316.473 C 133.935 316.382,133.460 316.084,133.208 315.422 C 132.867 314.524,131.021 313.600,129.567 313.600 C 129.086 313.600,128.812 313.242,128.727 312.500 C 128.622 311.595,128.379 311.379,127.355 311.279 C 126.496 311.195,125.973 310.858,125.670 310.195 C 125.322 309.430,124.817 309.177,123.216 308.964 C 121.342 308.716,121.200 308.619,121.200 307.584 C 121.200 305.923,116.359 301.102,114.867 301.276 C 113.925 301.385,113.785 301.248,113.675 300.100 C 113.564 298.957,113.408 298.800,112.375 298.800 C 111.336 298.800,111.200 298.661,111.200 297.600 C 111.200 296.533,111.067 296.400,110.000 296.400 C 108.980 296.400,108.800 296.247,108.800 295.379 C 108.800 294.610,108.511 294.258,107.629 293.950 C 106.886 293.691,106.309 293.114,106.050 292.371 C 105.742 291.489,105.390 291.200,104.621 291.200 C 103.753 291.200,103.600 291.020,103.600 290.000 C 103.600 288.945,103.461 288.800,102.452 288.800 C 101.376 288.800,101.286 288.674,101.038 286.803 C 100.817 285.135,100.583 284.708,99.615 284.208 C 98.959 283.868,98.401 283.217,98.328 282.704 C 98.244 282.111,97.880 281.755,97.268 281.668 C 96.659 281.582,96.195 281.131,95.929 280.368 C 95.678 279.647,95.240 279.200,94.784 279.200 C 93.931 279.200,93.503 278.641,93.443 277.446 C 93.419 276.981,93.130 276.576,92.800 276.546 C 92.470 276.517,91.975 276.472,91.700 276.446 C 91.424 276.421,91.200 275.874,91.200 275.227 C 91.200 273.768,90.538 273.525,87.192 273.754 C 84.397 273.945,83.781 274.480,83.912 276.600 C 83.975 277.616,83.930 277.677,83.621 277.000 C 83.300 276.295,83.249 276.343,83.194 277.400 L 83.131 278.600 82.777 277.414 C 82.488 276.446,82.581 276.059,83.281 275.314 C 84.195 274.341,83.645 274.012,82.695 274.962 C 82.226 275.431,82.088 280.673,81.866 306.462 C 81.373 363.899,81.355 363.200,83.329 363.200 C 83.602 363.200,83.811 363.830,83.825 364.700 C 83.873 367.504,84.318 368.509,85.418 368.299 C 85.958 368.195,86.400 368.285,86.400 368.498 C 86.400 368.711,86.625 368.801,86.900 368.698 C 87.869 368.335,89.000 369.057,89.000 370.040 C 89.000 370.754,89.231 371.013,89.900 371.050 C 91.508 371.139,91.600 371.190,91.600 371.986 C 91.600 373.013,92.754 373.600,94.774 373.600 C 96.313 373.600,96.400 373.664,96.400 374.796 C 96.400 375.769,96.567 375.991,97.300 375.990 C 99.059 375.987,99.600 376.140,99.600 376.639 C 99.600 377.431,101.942 378.909,102.828 378.677 C 103.404 378.526,103.777 378.781,104.211 379.622 C 104.710 380.586,105.136 380.817,106.834 381.042 C 108.426 381.253,108.935 381.503,109.200 382.201 C 109.606 383.267,110.360 383.600,112.369 383.600 C 113.574 383.600,113.960 383.793,114.316 384.576 C 114.737 385.500,116.766 386.392,118.458 386.398 C 118.819 386.399,119.693 386.940,120.400 387.600 C 121.310 388.450,122.084 388.800,123.055 388.800 C 123.919 388.800,124.512 389.027,124.661 389.415 C 125.033 390.383,126.810 391.071,129.177 391.163 C 131.043 391.235,133.583 391.952,132.100 391.988 C 131.380 392.005,131.483 393.070,132.233 393.357 C 132.581 393.491,134.201 393.600,135.833 393.600 C 138.469 393.600,138.800 393.684,138.800 394.351 C 138.800 395.622,139.730 395.981,143.310 396.093 C 146.450 396.190,146.774 396.276,146.974 397.056 C 147.300 398.331,148.106 398.520,153.800 398.651 C 158.091 398.749,159.023 398.878,159.129 399.385 C 159.324 400.311,241.200 400.325,241.200 399.400 C 241.200 399.070,241.335 398.792,241.500 398.781 C 241.665 398.771,243.960 398.710,246.600 398.646 C 251.759 398.520,252.644 398.321,252.997 397.210 C 253.224 396.496,256.099 395.965,259.507 396.009 C 260.648 396.024,260.846 395.872,261.057 394.813 C 261.299 393.606,261.313 393.600,264.001 393.600 C 265.914 393.600,266.847 393.425,267.200 393.000 C 267.474 392.670,267.946 392.400,268.249 392.400 C 268.552 392.400,268.800 392.130,268.800 391.800 C 268.800 391.367,269.244 391.200,270.400 391.200 C 271.410 391.200,272.002 391.016,272.006 390.700 C 272.011 390.336,272.107 390.350,272.360 390.749 C 272.880 391.570,274.887 390.773,275.508 389.498 C 275.902 388.691,276.241 388.497,277.012 388.636 C 278.122 388.838,280.328 387.854,280.651 387.012 C 280.766 386.712,281.751 386.344,282.840 386.194 C 284.865 385.916,286.000 385.189,286.000 384.171 C 286.000 383.773,286.476 383.600,287.567 383.600 C 289.640 383.600,290.391 383.275,290.800 382.201 C 291.066 381.501,291.575 381.253,293.185 381.040 C 294.832 380.821,295.319 380.576,295.680 379.784 C 295.978 379.131,296.456 378.800,297.102 378.800 C 298.233 378.800,300.400 377.380,300.400 376.639 C 300.400 376.140,300.941 375.987,302.700 375.990 C 303.433 375.991,303.600 375.769,303.600 374.796 C 303.600 373.664,303.687 373.600,305.226 373.600 C 307.230 373.600,308.400 373.014,308.400 372.011 C 308.400 371.446,308.733 371.219,309.700 371.125 C 310.783 371.021,311.021 370.817,311.127 369.900 C 311.223 369.058,311.467 368.800,312.167 368.800 C 313.886 368.800,315.596 367.954,315.840 366.983 C 316.001 366.343,316.412 366.007,317.138 365.923 C 317.962 365.828,318.228 365.553,318.327 364.700 C 318.423 363.866,318.669 363.600,319.347 363.600 C 320.425 363.600,321.200 362.898,321.200 361.920 C 321.200 361.391,321.510 361.200,322.369 361.200 C 323.131 361.200,323.950 360.788,324.718 360.020 C 325.367 359.372,326.388 358.718,326.988 358.567 C 327.693 358.390,328.217 357.896,328.470 357.170 C 328.747 356.376,329.175 356.011,329.931 355.924 C 330.527 355.855,331.024 355.535,331.054 355.200 C 331.083 354.870,331.128 354.375,331.154 354.100 C 331.180 353.822,331.730 353.600,332.395 353.600 C 333.368 353.600,334.277 352.914,337.297 349.900 C 339.335 347.865,341.498 345.979,342.102 345.709 C 342.706 345.438,343.200 344.952,343.200 344.628 C 343.200 344.304,344.460 342.762,346.000 341.200 C 347.948 339.224,348.800 338.060,348.800 337.370 C 348.800 336.594,349.055 336.329,349.978 336.144 C 350.942 335.952,351.178 335.682,351.278 334.660 C 351.379 333.629,351.574 333.410,352.400 333.405 C 353.195 333.401,353.402 333.196,353.408 332.404 C 353.413 331.731,353.672 331.360,354.208 331.261 C 355.341 331.051,356.000 330.419,356.000 329.542 C 356.000 329.124,356.441 328.582,356.980 328.336 C 357.991 327.876,358.800 326.189,358.800 324.540 C 358.800 323.872,359.028 323.600,359.586 323.600 C 360.454 323.600,361.200 322.503,361.200 321.226 C 361.200 320.772,361.449 320.400,361.754 320.400 C 362.565 320.400,363.600 318.614,363.600 317.214 C 363.600 316.132,363.730 316.000,364.800 316.000 C 365.855 316.000,366.000 315.861,366.000 314.850 C 366.000 313.903,366.203 313.659,367.152 313.470 C 368.207 313.259,368.333 313.045,368.652 310.927 C 368.969 308.822,369.090 308.613,370.000 308.607 C 370.831 308.601,371.021 308.383,371.124 307.319 C 371.207 306.458,371.509 305.956,372.047 305.785 C 372.950 305.498,373.600 304.092,373.600 302.424 C 373.600 301.504,373.810 301.258,374.759 301.068 C 375.842 300.852,375.935 300.679,376.198 298.418 C 376.463 296.132,376.644 295.872,377.855 296.034 C 378.403 296.108,378.788 294.916,378.794 293.127 C 378.800 291.382,378.876 291.244,379.900 291.127 C 380.950 291.006,381.009 290.881,381.200 288.406 C 381.389 285.960,381.457 285.811,382.400 285.806 C 383.332 285.800,383.408 285.648,383.518 283.581 C 383.625 281.560,383.736 281.324,384.765 280.936 C 385.761 280.560,385.927 280.246,386.174 278.273 C 386.384 276.585,386.637 275.979,387.206 275.798 C 388.139 275.502,388.471 274.526,388.768 271.204 C 388.963 269.024,389.128 268.584,389.800 268.458 C 391.003 268.232,391.187 267.683,391.194 264.300 C 391.199 261.883,391.326 261.200,391.771 261.200 C 393.115 261.200,393.600 260.016,393.600 256.732 C 393.600 253.707,393.667 253.458,394.755 252.442 C 395.909 251.364,396.956 243.770,396.298 241.255 C 396.153 240.697,396.277 240.547,396.779 240.679 C 398.360 241.092,398.794 238.520,398.798 228.700 C 398.800 226.212,398.918 225.600,399.400 225.600 C 399.927 225.600,400.000 222.489,400.000 200.000 C 400.000 177.511,399.927 174.400,399.400 174.400 C 398.992 174.400,398.797 173.985,398.791 173.100 C 398.737 165.492,398.415 164.000,396.823 164.000 C 396.450 164.000,395.753 163.550,395.275 163.000 L 394.405 162.000 318.303 161.997 C 276.446 161.996,241.030 161.937,239.600 161.868 C 238.170 161.798,231.018 161.802,223.706 161.876 M73.600 162.800 C 73.600 163.065,92.589 163.200,129.767 163.200 C 160.659 163.200,186.264 163.324,186.667 163.475 C 187.312 163.717,187.334 163.669,186.851 163.075 C 186.201 162.275,73.600 162.002,73.600 162.800 M247.400 162.737 C 248.580 163.063,248.570 163.073,246.800 163.327 C 244.259 163.691,239.396 163.769,238.885 163.452 C 238.649 163.306,238.361 163.340,238.245 163.528 C 238.129 163.715,237.099 163.677,235.957 163.443 C 234.261 163.095,234.056 162.972,234.840 162.769 C 236.316 162.388,246.047 162.363,247.400 162.737 M1.320 165.200 C 1.320 166.410,1.395 166.905,1.487 166.300 C 1.578 165.695,1.578 164.705,1.487 164.100 C 1.395 163.495,1.320 163.990,1.320 165.200 M0.000 181.000 C 0.000 181.622,0.227 182.000,0.600 182.000 C 0.973 182.000,1.200 181.622,1.200 181.000 C 1.200 180.378,0.973 180.000,0.600 180.000 C 0.227 180.000,0.000 180.378,0.000 181.000 M0.000 182.800 C 0.000 183.020,0.270 183.200,0.600 183.200 C 0.930 183.200,1.200 183.020,1.200 182.800 C 1.200 182.580,0.930 182.400,0.600 182.400 C 0.270 182.400,0.000 182.580,0.000 182.800 M0.000 217.200 C 0.000 217.420,0.270 217.600,0.600 217.600 C 0.930 217.600,1.200 217.420,1.200 217.200 C 1.200 216.980,0.930 216.800,0.600 216.800 C 0.270 216.800,0.000 216.980,0.000 217.200 M0.000 219.000 C 0.000 219.622,0.227 220.000,0.600 220.000 C 0.973 220.000,1.200 219.622,1.200 219.000 C 1.200 218.378,0.973 218.000,0.600 218.000 C 0.227 218.000,0.000 218.378,0.000 219.000 M188.352 231.075 C 188.059 233.079,188.194 233.312,189.733 233.471 C 190.681 233.569,191.172 233.478,191.020 233.232 C 190.885 233.014,190.510 232.936,190.187 233.060 C 189.864 233.184,189.600 233.086,189.600 232.843 C 189.600 232.599,189.973 232.400,190.429 232.400 C 191.863 232.400,191.201 231.020,189.697 230.875 C 188.984 230.806,188.379 230.896,188.352 231.075 M1.234 234.700 C 1.263 236.307,1.319 236.435,1.591 235.531 C 1.769 234.944,2.051 234.241,2.219 233.970 C 2.429 233.630,2.358 233.579,1.994 233.804 C 1.609 234.042,1.534 233.949,1.719 233.466 C 1.860 233.100,1.801 232.800,1.587 232.800 C 1.374 232.800,1.215 233.655,1.234 234.700 M1.600 239.120 C 1.600 240.007,2.351 240.802,3.180 240.794 C 3.673 240.789,3.690 240.718,3.266 240.449 C 2.972 240.263,2.729 239.951,2.726 239.755 C 2.723 239.560,2.536 239.452,2.311 239.516 C 2.086 239.580,2.008 239.355,2.138 239.016 C 2.268 238.677,2.201 238.400,1.987 238.400 C 1.774 238.400,1.600 238.724,1.600 239.120 M3.728 243.600 C 3.728 245.030,3.801 245.615,3.889 244.900 C 3.978 244.185,3.978 243.015,3.889 242.300 C 3.801 241.585,3.728 242.170,3.728 243.600 M4.519 248.253 C 4.658 248.392,4.594 248.837,4.377 249.244 C 4.059 249.837,4.104 249.935,4.607 249.742 C 4.989 249.595,5.187 249.695,5.116 249.998 C 5.052 250.271,5.286 250.542,5.636 250.602 C 6.325 250.719,6.469 249.109,5.822 248.519 C 5.626 248.340,5.601 248.464,5.766 248.800 C 5.942 249.161,5.831 249.122,5.486 248.700 C 5.170 248.315,4.767 248.000,4.589 248.000 C 4.412 248.000,4.380 248.114,4.519 248.253 M4.001 250.811 C 3.999 251.764,5.172 253.203,5.923 253.168 C 6.389 253.147,6.434 253.071,6.067 252.924 C 5.774 252.807,5.190 252.146,4.769 251.456 C 4.348 250.765,4.002 250.475,4.001 250.811 M7.348 255.009 C 7.482 255.357,7.357 255.482,7.010 255.348 C 6.584 255.185,6.470 255.600,6.504 257.183 C 6.536 258.654,6.690 259.174,7.054 259.035 C 7.366 258.915,7.475 259.061,7.338 259.418 C 7.216 259.736,6.932 259.881,6.706 259.742 C 6.481 259.603,6.375 259.726,6.472 260.016 C 6.796 260.987,7.980 261.467,8.405 260.800 C 9.215 259.530,8.885 254.916,7.968 254.676 C 7.373 254.520,7.197 254.615,7.348 255.009 M8.800 261.624 C 8.800 262.121,8.974 262.339,9.240 262.175 C 9.554 261.981,9.562 262.123,9.267 262.675 C 8.818 263.514,8.884 265.165,9.400 266.000 C 9.632 266.375,9.564 266.432,9.162 266.203 C 8.707 265.944,8.696 265.986,9.100 266.421 C 9.375 266.718,9.597 267.149,9.594 267.380 C 9.591 267.611,9.413 267.530,9.200 267.200 C 8.860 266.674,8.811 266.678,8.806 267.233 C 8.797 268.188,9.217 268.419,10.103 267.945 C 11.239 267.337,11.486 267.951,11.340 271.013 C 11.272 272.436,11.368 273.600,11.553 273.600 C 11.738 273.600,11.806 274.032,11.705 274.561 C 11.484 275.717,12.579 276.219,14.042 275.634 C 14.569 275.423,14.799 275.239,14.553 275.225 C 14.267 275.209,14.080 274.007,14.035 271.902 C 13.971 268.885,13.389 267.012,12.917 268.300 C 12.816 268.575,12.558 268.800,12.343 268.800 C 12.128 268.800,12.051 268.640,12.172 268.445 C 12.293 268.250,12.142 267.884,11.837 267.631 C 11.532 267.378,11.375 266.818,11.488 266.387 C 11.873 264.911,11.190 261.118,10.580 261.352 C 10.275 261.469,9.919 261.393,9.789 261.183 C 9.376 260.514,8.800 260.770,8.800 261.624 M14.270 275.882 C 13.571 276.062,13.570 276.104,14.247 276.852 C 14.926 277.602,14.925 277.623,14.213 277.350 C 13.578 277.106,13.513 277.204,13.761 278.033 C 13.920 278.565,14.084 279.341,14.125 279.757 C 14.198 280.498,14.739 280.941,16.061 281.344 C 16.596 281.507,16.697 281.972,16.586 283.773 C 16.455 285.916,16.481 285.985,17.273 285.561 C 17.871 285.241,18.022 285.241,17.825 285.560 C 17.671 285.808,17.825 286.000,18.176 286.000 C 18.672 286.000,18.800 285.507,18.800 283.600 L 18.800 281.200 17.600 281.200 L 16.400 281.200 16.400 278.400 C 16.400 275.433,16.329 275.349,14.270 275.882 M18.828 288.300 C 18.813 289.015,19.002 289.600,19.249 289.600 C 19.572 289.600,19.566 289.759,19.230 290.164 C 18.935 290.520,18.906 290.819,19.153 290.971 C 19.368 291.104,19.670 291.011,19.822 290.764 C 20.020 290.444,20.195 290.468,20.428 290.846 C 20.998 291.767,21.351 290.704,21.246 288.386 C 21.195 287.253,19.623 286.878,19.572 287.986 C 19.552 288.414,19.440 288.358,19.200 287.800 C 18.912 287.130,18.852 287.211,18.828 288.300 M21.559 291.600 C 21.522 291.710,21.457 292.655,21.415 293.700 C 21.336 295.626,21.530 295.842,23.140 295.621 C 23.471 295.575,23.563 295.736,23.378 296.035 C 23.185 296.347,23.243 296.421,23.538 296.238 C 24.075 295.907,24.149 293.254,23.644 292.457 C 23.390 292.057,23.224 292.037,23.012 292.381 C 22.808 292.710,22.562 292.635,22.174 292.124 C 21.872 291.726,21.596 291.490,21.559 291.600 M23.964 297.843 C 23.513 298.387,23.534 298.563,24.101 298.977 C 24.581 299.328,24.649 299.591,24.341 299.899 C 23.752 300.488,24.243 301.162,25.208 301.089 C 26.956 300.958,26.518 297.249,24.749 297.206 C 24.611 297.203,24.258 297.489,23.964 297.843 M26.400 302.851 C 26.400 303.949,26.560 304.749,26.755 304.628 C 26.950 304.507,27.085 304.722,27.055 305.104 C 27.016 305.601,27.344 305.833,28.200 305.915 C 28.860 305.978,29.220 305.888,29.000 305.715 C 28.780 305.542,28.600 304.430,28.600 303.245 C 28.600 301.188,28.549 301.084,27.500 300.972 C 26.431 300.858,26.400 300.911,26.400 302.851 M29.280 306.080 C 28.669 306.691,28.658 308.265,29.262 308.638 C 29.567 308.827,29.614 308.746,29.400 308.400 C 29.165 308.020,29.230 307.972,29.638 308.227 C 30.797 308.950,31.200 308.739,31.200 307.407 C 31.200 306.571,30.968 305.996,30.567 305.843 C 29.762 305.534,29.841 305.519,29.280 306.080 M32.049 311.885 C 31.645 312.318,31.638 312.563,32.016 313.019 C 32.745 313.898,33.962 313.756,33.890 312.800 C 33.857 312.360,33.677 312.000,33.491 312.000 C 33.305 312.000,33.245 311.850,33.359 311.667 C 33.703 311.110,32.601 311.294,32.049 311.885 M83.552 313.600 C 83.716 313.600,83.839 314.679,83.825 315.998 C 83.811 317.316,83.658 318.396,83.485 318.398 C 83.312 318.399,83.222 328.381,83.285 340.580 C 83.348 352.779,83.275 362.634,83.121 362.480 C 82.872 362.229,82.591 314.842,82.824 312.400 C 82.918 311.422,82.924 311.424,83.087 312.500 C 83.178 313.105,83.387 313.600,83.552 313.600 M33.427 313.106 C 33.064 313.469,31.949 312.806,32.210 312.383 C 32.389 312.093,32.651 312.110,33.045 312.438 C 33.361 312.700,33.533 313.001,33.427 313.106 M82.300 350.700 C 82.237 356.585,82.186 351.770,82.186 340.000 C 82.186 328.230,82.237 323.415,82.300 329.300 C 82.362 335.185,82.362 344.815,82.300 350.700 M272.322 323.290 C 272.483 324.125,270.887 324.610,269.300 324.208 L 268.200 323.930 269.600 323.176 C 271.234 322.297,272.138 322.335,272.322 323.290 M41.621 326.300 C 41.592 326.993,43.067 328.400,43.824 328.400 C 44.167 328.400,44.336 328.220,44.200 328.000 C 44.064 327.780,43.715 327.600,43.425 327.600 C 43.135 327.600,42.615 327.195,42.270 326.700 C 41.924 326.205,41.633 326.025,41.621 326.300 M44.000 329.700 C 44.000 330.059,44.192 330.471,44.427 330.616 C 45.113 331.040,45.180 330.661,44.567 329.823 C 44.093 329.174,44.000 329.154,44.000 329.700 M67.625 340.232 C 67.800 341.153,67.552 341.667,67.030 341.467 C 66.621 341.310,66.266 341.863,65.775 343.424 C 65.330 344.840,64.865 345.611,64.445 345.632 C 64.090 345.650,63.318 345.701,62.729 345.744 C 62.141 345.788,61.667 345.728,61.677 345.612 C 61.864 343.411,59.869 342.730,59.005 344.700 C 58.788 345.195,58.462 345.600,58.282 345.600 C 58.101 345.600,58.047 345.447,58.163 345.260 C 58.278 345.073,57.913 344.520,57.350 344.032 L 56.328 343.143 56.601 344.071 C 56.752 344.582,57.153 345.180,57.494 345.400 C 57.834 345.620,58.711 346.385,59.443 347.100 C 60.175 347.815,60.914 348.421,61.087 348.447 C 62.575 348.668,65.600 348.542,65.600 348.258 C 65.600 348.062,65.861 348.119,66.181 348.384 C 66.911 348.990,68.298 348.578,68.549 347.680 C 68.797 346.796,68.660 344.717,68.319 344.181 C 68.173 343.950,68.218 343.500,68.420 343.181 C 68.984 342.289,68.869 340.955,68.177 340.381 C 67.835 340.097,67.586 340.030,67.625 340.232 M61.147 346.486 C 61.102 346.549,61.305 347.050,61.598 347.600 C 62.106 348.553,62.095 348.572,61.365 348.012 C 59.593 346.651,59.069 345.928,59.610 345.594 C 60.048 345.323,61.412 346.115,61.147 346.486 M274.931 389.436 C 274.622 390.240,273.660 390.443,273.809 389.672 C 273.967 388.856,273.888 388.933,274.562 388.933 C 274.871 388.933,275.037 389.159,274.931 389.436 " stroke="none" fill="#4c6bf3" fill-rule="evenodd"></path><path id="path1" d="M156.800 0.600 C 156.800 0.930,156.665 1.210,156.500 1.222 C 156.335 1.234,154.644 1.291,152.742 1.349 C 149.131 1.458,146.857 2.306,147.464 3.318 C 147.641 3.612,147.490 3.586,147.077 3.251 C 146.497 2.781,146.400 2.790,146.400 3.314 C 146.400 3.803,145.857 3.926,143.700 3.927 C 139.680 3.927,138.299 4.241,137.400 5.356 C 136.745 6.169,136.183 6.371,134.295 6.472 C 132.646 6.561,132.044 6.739,132.182 7.098 C 132.288 7.374,132.111 7.600,131.787 7.600 C 131.464 7.600,131.200 7.870,131.200 8.200 C 131.200 8.643,130.737 8.800,129.432 8.800 C 127.720 8.800,125.208 9.839,125.203 10.549 C 125.201 10.741,125.440 10.699,125.733 10.455 C 126.131 10.126,126.267 10.144,126.267 10.526 C 126.267 10.809,125.847 11.040,125.333 11.040 C 124.820 11.040,124.397 10.851,124.394 10.620 C 124.390 10.361,124.275 10.376,124.094 10.659 C 123.932 10.912,123.260 11.175,122.600 11.244 C 121.940 11.313,121.194 11.518,120.942 11.699 C 120.690 11.880,120.240 11.977,119.942 11.914 C 119.609 11.844,119.449 12.085,119.527 12.540 C 119.596 12.947,119.480 13.173,119.269 13.042 C 119.057 12.912,118.773 13.094,118.637 13.448 C 118.481 13.855,118.099 14.015,117.595 13.883 C 117.158 13.768,116.800 13.857,116.800 14.080 C 116.800 14.303,116.526 14.380,116.191 14.252 C 115.488 13.982,113.852 15.437,114.209 16.015 C 114.407 16.335,112.056 16.593,109.704 16.508 C 109.432 16.498,109.276 16.605,109.357 16.745 C 109.801 17.505,108.752 18.800,107.693 18.800 C 107.070 18.800,106.344 19.016,106.080 19.280 C 105.707 19.653,105.600 19.653,105.600 19.280 C 105.600 19.016,105.409 18.800,105.176 18.800 C 104.943 18.800,104.839 18.940,104.945 19.111 C 105.488 19.990,103.499 21.393,101.457 21.570 C 101.269 21.587,101.214 21.861,101.337 22.180 C 101.480 22.553,101.367 22.685,101.020 22.552 C 100.269 22.264,99.774 23.210,100.449 23.645 C 100.800 23.871,100.439 23.932,99.451 23.812 C 97.490 23.574,96.400 24.146,96.400 25.414 C 96.400 26.413,95.970 26.545,92.724 26.542 C 92.352 26.542,92.080 26.645,92.120 26.771 C 92.318 27.388,90.801 28.809,89.863 28.887 C 89.278 28.935,88.800 29.115,88.800 29.287 C 88.800 29.459,88.535 29.600,88.210 29.600 C 87.886 29.600,87.341 30.140,87.000 30.800 C 86.659 31.460,86.205 32.000,85.993 32.000 C 85.780 32.000,85.148 32.514,84.588 33.143 C 83.896 33.919,83.252 34.252,82.582 34.178 C 82.040 34.119,81.690 34.222,81.805 34.407 C 81.919 34.593,81.818 34.865,81.579 35.013 C 81.341 35.160,81.242 35.533,81.360 35.840 C 81.510 36.230,81.264 36.400,80.553 36.400 C 79.784 36.400,79.418 36.698,79.078 37.600 C 78.767 38.423,78.353 38.800,77.761 38.800 C 77.286 38.800,76.651 39.105,76.349 39.477 C 75.876 40.060,75.883 40.106,76.400 39.808 C 76.786 39.585,76.734 39.766,76.252 40.315 C 75.480 41.197,74.816 41.294,74.306 40.600 C 74.140 40.374,74.010 40.505,74.006 40.900 C 74.003 41.285,73.809 41.600,73.576 41.600 C 73.343 41.600,73.281 41.808,73.438 42.062 C 73.616 42.350,73.548 42.415,73.255 42.234 C 72.998 42.075,72.891 41.777,73.017 41.572 C 73.144 41.368,73.057 41.200,72.824 41.200 C 72.591 41.200,72.400 41.470,72.400 41.800 C 72.400 42.130,72.130 42.400,71.800 42.400 C 71.470 42.400,71.200 42.591,71.200 42.824 C 71.200 43.057,71.368 43.144,71.572 43.017 C 71.777 42.891,72.076 43.015,72.236 43.293 C 72.397 43.572,72.395 43.681,72.233 43.535 C 72.070 43.389,71.102 43.555,70.082 43.902 C 68.046 44.596,63.239 48.981,64.116 49.345 C 64.395 49.461,64.221 49.661,63.704 49.819 C 63.212 49.968,62.925 50.278,63.066 50.507 C 63.208 50.736,63.149 50.815,62.935 50.683 C 62.721 50.551,62.293 50.793,61.985 51.221 C 61.676 51.650,61.204 52.000,60.935 52.000 C 60.667 52.000,60.319 52.208,60.162 52.462 C 59.973 52.767,60.054 52.814,60.400 52.600 C 60.757 52.380,60.827 52.432,60.622 52.765 C 60.456 53.033,60.219 53.152,60.096 53.029 C 59.973 52.906,59.612 53.176,59.294 53.629 C 58.935 54.143,58.473 54.360,58.071 54.206 C 57.715 54.069,57.552 54.086,57.709 54.242 C 57.865 54.398,57.770 54.813,57.497 55.163 C 57.057 55.727,57.081 55.737,57.700 55.251 C 58.085 54.949,58.400 54.817,58.400 54.957 C 58.400 55.097,57.815 55.568,57.100 56.004 C 56.385 56.440,55.920 56.798,56.067 56.799 C 56.511 56.801,53.805 59.436,53.068 59.719 C 52.690 59.864,52.243 60.356,52.074 60.813 C 51.905 61.270,51.324 61.869,50.783 62.145 C 50.242 62.421,49.825 62.949,49.855 63.319 C 49.885 63.689,49.769 63.904,49.597 63.798 C 49.226 63.569,48.800 64.551,48.800 65.633 C 48.800 66.307,48.115 66.594,46.785 66.476 C 46.667 66.465,46.532 66.910,46.486 67.464 C 46.370 68.873,46.026 69.300,45.185 69.080 C 44.687 68.950,44.527 69.064,44.673 69.445 C 44.790 69.750,44.706 70.000,44.486 70.000 C 44.266 70.000,43.970 70.466,43.827 71.036 C 43.641 71.775,43.383 72.002,42.927 71.827 C 42.409 71.629,42.378 71.691,42.763 72.155 C 43.131 72.599,43.130 72.796,42.758 73.026 C 42.482 73.197,42.380 73.155,42.521 72.928 C 42.655 72.711,42.511 72.533,42.200 72.533 C 41.889 72.533,41.708 72.651,41.797 72.795 C 42.197 73.443,40.869 76.598,40.219 76.540 C 39.771 76.500,39.623 76.682,39.777 77.084 C 39.945 77.522,39.826 77.619,39.348 77.435 C 38.845 77.243,38.788 77.304,39.110 77.692 C 39.584 78.262,38.852 79.600,38.066 79.600 C 37.500 79.600,36.400 81.700,36.400 82.780 C 36.400 83.231,36.209 83.600,35.976 83.600 C 35.743 83.600,35.644 83.748,35.757 83.930 C 35.869 84.111,35.564 84.246,35.080 84.230 C 34.423 84.207,34.207 84.423,34.230 85.080 C 34.246 85.564,34.111 85.869,33.930 85.757 C 33.748 85.644,33.600 85.854,33.600 86.223 C 33.600 86.697,33.365 86.832,32.799 86.684 C 32.359 86.569,32.087 86.617,32.195 86.792 C 32.303 86.967,32.123 87.332,31.796 87.604 C 30.984 88.277,31.044 88.825,31.900 88.550 C 32.285 88.426,32.021 88.716,31.314 89.193 C 29.880 90.161,28.800 92.014,28.800 93.508 C 28.800 94.291,28.638 94.451,28.014 94.288 C 27.548 94.166,27.263 94.269,27.314 94.541 C 27.361 94.793,27.216 94.969,26.992 94.931 C 26.768 94.893,26.565 95.679,26.540 96.677 C 26.496 98.492,25.881 99.368,24.904 99.010 C 24.621 98.906,24.294 99.281,24.143 99.883 C 23.897 100.865,23.837 101.370,23.656 104.000 C 23.607 104.725,23.493 104.851,23.244 104.457 C 22.781 103.726,21.337 104.218,21.340 105.105 C 21.350 107.786,21.155 108.800,20.629 108.800 C 19.489 108.800,18.800 110.016,18.800 112.029 C 18.800 113.554,18.658 114.000,18.171 114.000 C 17.009 114.000,16.400 115.082,16.400 117.148 C 16.400 118.251,16.220 119.264,16.000 119.400 C 15.780 119.536,15.600 119.457,15.600 119.224 C 15.600 118.991,15.420 118.800,15.200 118.800 C 14.980 118.800,14.838 118.935,14.885 119.100 C 14.932 119.265,14.721 119.850,14.417 120.400 C 14.113 120.950,13.895 121.445,13.932 121.500 C 13.970 121.555,13.983 121.645,13.962 121.700 C 13.942 121.755,13.897 122.340,13.862 123.000 C 13.828 123.660,13.688 124.380,13.552 124.600 C 13.415 124.820,13.354 125.309,13.415 125.688 C 13.476 126.066,13.407 126.359,13.263 126.340 C 11.764 126.141,11.192 126.437,11.600 127.200 C 11.890 127.742,11.895 128.000,11.614 128.000 C 11.386 128.000,11.200 128.701,11.200 129.557 C 11.200 131.030,10.497 131.882,9.470 131.654 C 9.289 131.613,9.255 131.765,9.394 131.990 C 9.533 132.216,9.500 132.400,9.320 132.400 C 8.986 132.400,8.962 132.648,8.859 137.149 C 8.810 139.270,8.707 139.621,8.247 139.239 C 7.819 138.884,7.638 138.924,7.450 139.415 C 7.303 139.797,7.005 139.930,6.703 139.749 C 6.321 139.519,6.325 139.600,6.719 140.088 C 7.005 140.440,7.080 140.827,6.886 140.947 C 6.691 141.067,6.492 142.285,6.443 143.653 C 6.327 146.851,6.358 146.740,5.278 147.855 C 4.772 148.378,4.467 148.985,4.602 149.203 C 4.737 149.422,4.684 149.600,4.484 149.600 C 4.059 149.600,3.856 151.340,3.931 154.349 C 3.976 156.180,3.841 156.610,3.016 157.259 C 1.792 158.222,1.473 159.215,1.970 160.521 C 2.251 161.260,2.226 161.592,1.880 161.707 C 1.574 161.809,1.398 162.798,1.395 164.434 C 1.378 172.228,1.205 174.400,0.600 174.400 C -0.231 174.400,-0.155 175.101,0.700 175.324 C 1.367 175.498,1.367 175.509,0.700 175.554 C -0.257 175.617,-0.355 180.000,0.600 180.000 C 1.469 180.000,1.379 181.894,0.500 182.124 C -0.167 182.298,-0.167 182.309,0.500 182.354 C 1.352 182.410,1.445 183.200,0.600 183.200 C 0.076 183.200,0.000 185.333,0.000 200.000 C 0.000 214.667,0.076 216.800,0.600 216.800 C 1.431 216.800,1.355 217.501,0.500 217.724 C -0.167 217.898,-0.167 217.909,0.500 217.954 C 1.394 218.013,1.492 220.000,0.600 220.000 C -0.346 220.000,-0.251 224.276,0.700 224.524 C 1.367 224.698,1.367 224.709,0.700 224.754 C -0.152 224.810,-0.245 225.600,0.600 225.600 C 1.089 225.600,1.200 226.267,1.200 229.200 C 1.200 231.256,1.366 232.800,1.587 232.800 C 1.801 232.800,1.860 233.100,1.719 233.466 C 1.562 233.877,1.624 234.032,1.882 233.873 C 2.131 233.719,2.085 234.219,1.768 235.107 C 1.069 237.066,1.071 237.975,1.775 238.246 C 2.091 238.367,2.259 238.703,2.147 238.993 C 2.036 239.282,2.166 239.655,2.435 239.821 C 2.768 240.027,2.821 239.957,2.600 239.600 C 2.384 239.251,2.433 239.173,2.745 239.366 C 3.002 239.525,3.109 239.823,2.983 240.028 C 2.856 240.232,2.954 240.400,3.200 240.400 C 3.446 240.400,3.536 240.580,3.400 240.800 C 3.264 241.020,3.348 241.200,3.587 241.200 C 3.874 241.200,4.000 242.523,3.958 245.100 C 3.880 249.865,4.637 252.800,5.943 252.800 C 6.121 252.800,6.297 253.070,6.333 253.400 C 6.370 253.730,6.430 254.262,6.467 254.583 C 6.503 254.903,6.764 255.254,7.046 255.362 C 7.358 255.482,7.476 255.343,7.348 255.009 C 7.195 254.609,7.376 254.521,8.008 254.686 C 8.825 254.900,8.871 255.109,8.739 258.006 C 8.639 260.221,8.729 261.049,9.059 260.922 C 9.312 260.825,9.633 260.930,9.772 261.155 C 9.912 261.381,10.275 261.469,10.580 261.352 C 11.190 261.118,11.873 264.911,11.488 266.387 C 11.375 266.818,11.532 267.378,11.837 267.631 C 12.142 267.884,12.293 268.250,12.172 268.445 C 12.051 268.640,12.128 268.800,12.343 268.800 C 12.558 268.800,12.816 268.575,12.917 268.300 C 13.389 267.012,13.971 268.885,14.035 271.902 C 14.080 274.005,14.268 275.210,14.553 275.228 C 14.799 275.244,14.640 275.419,14.200 275.619 C 13.630 275.877,13.831 275.914,14.900 275.746 L 16.400 275.511 16.400 278.355 L 16.400 281.200 17.634 281.200 L 18.868 281.200 18.734 283.801 C 18.660 285.231,18.746 286.401,18.924 286.401 C 19.102 286.400,19.169 286.535,19.074 286.700 C 18.978 286.865,19.045 287.360,19.222 287.800 C 19.442 288.348,19.553 288.406,19.572 287.986 C 19.587 287.647,19.959 287.371,20.400 287.371 C 21.235 287.371,21.364 287.913,21.206 290.745 C 21.157 291.631,21.280 291.998,21.568 291.820 C 21.809 291.671,22.115 291.835,22.250 292.185 C 22.434 292.667,22.623 292.713,23.030 292.375 C 23.779 291.754,24.132 293.330,23.844 296.003 C 23.654 297.763,23.706 298.010,24.184 297.613 C 25.260 296.721,26.405 297.788,26.237 299.528 C 26.097 300.986,26.134 301.036,27.346 301.020 L 28.600 301.003 28.600 303.302 C 28.600 304.567,28.746 305.601,28.924 305.601 C 29.102 305.600,29.112 305.825,28.947 306.100 C 28.712 306.491,28.783 306.489,29.273 306.093 C 30.522 305.081,31.200 305.907,31.200 308.443 C 31.200 310.059,31.357 310.802,31.700 310.806 C 32.038 310.810,32.010 310.933,31.611 311.185 C 31.108 311.503,31.124 311.596,31.721 311.825 C 32.241 312.025,32.310 312.226,31.991 312.611 C 31.455 313.257,31.959 313.587,32.939 313.231 C 33.609 312.987,33.619 312.913,33.039 312.432 C 32.243 311.772,32.221 311.333,32.982 311.333 C 33.303 311.333,33.472 311.483,33.359 311.667 C 33.245 311.850,33.311 312.000,33.504 312.000 C 33.697 312.000,33.875 312.495,33.901 313.100 C 33.960 314.516,34.202 315.644,34.425 315.543 C 35.041 315.267,36.400 316.563,36.400 317.428 C 36.400 318.648,37.488 320.400,38.246 320.400 C 38.759 320.400,38.983 320.913,38.832 321.745 C 38.798 321.935,39.092 322.353,39.485 322.675 C 39.878 322.996,39.947 323.128,39.638 322.968 C 39.261 322.772,39.173 322.834,39.372 323.154 C 39.534 323.417,40.012 323.523,40.434 323.389 C 41.011 323.206,41.215 323.350,41.260 323.973 C 41.293 324.428,41.338 325.019,41.360 325.287 C 41.415 325.952,42.824 327.390,43.800 327.776 C 44.314 327.980,44.420 328.160,44.097 328.281 C 43.728 328.419,43.804 328.763,44.385 329.579 C 44.820 330.190,45.062 330.805,44.922 330.945 C 44.781 331.085,44.877 331.200,45.133 331.200 C 45.390 331.200,45.600 331.009,45.600 330.776 C 45.600 329.916,46.305 330.823,46.536 331.981 C 46.706 332.828,47.072 333.253,47.788 333.433 C 48.775 333.680,48.909 333.899,48.910 335.261 C 48.910 335.668,49.350 336.010,50.055 336.151 C 51.061 336.352,51.315 336.741,51.166 337.855 C 51.147 337.996,51.282 338.221,51.466 338.355 C 51.650 338.490,52.005 338.960,52.255 339.400 C 52.506 339.840,53.013 340.173,53.382 340.140 C 53.751 340.107,53.957 340.177,53.838 340.295 C 53.482 340.651,55.162 342.734,56.027 343.009 C 56.626 343.199,56.771 343.488,56.591 344.132 C 56.400 344.812,56.437 344.870,56.759 344.400 C 57.117 343.879,57.265 343.902,57.886 344.578 C 58.578 345.333,58.576 345.339,57.800 344.778 C 57.081 344.258,57.050 344.264,57.497 344.837 C 57.770 345.187,57.865 345.602,57.709 345.758 C 57.552 345.914,57.693 345.939,58.021 345.813 C 58.349 345.688,58.793 345.183,59.008 344.692 C 59.870 342.730,61.863 343.417,61.677 345.612 C 61.667 345.728,62.141 345.788,62.729 345.744 C 63.318 345.701,64.090 345.650,64.445 345.632 C 64.865 345.611,65.330 344.840,65.775 343.424 C 66.266 341.863,66.621 341.310,67.030 341.467 C 67.543 341.664,67.794 341.169,67.637 340.270 C 67.606 340.089,67.740 340.040,67.936 340.161 C 68.132 340.282,68.202 340.880,68.092 341.490 C 67.981 342.101,68.025 342.476,68.188 342.324 C 68.665 341.881,68.677 340.734,68.740 285.900 L 68.800 233.600 128.545 233.600 L 188.290 233.600 188.186 232.657 C 188.028 231.212,188.559 230.674,189.942 230.877 L 191.173 231.058 191.178 198.229 C 191.183 163.076,191.250 164.232,189.185 163.940 C 188.643 163.863,188.015 163.440,187.788 163.000 C 187.380 162.206,186.921 162.199,130.488 162.099 C 71.913 161.994,71.751 161.990,74.000 160.600 C 74.220 160.464,74.400 160.543,74.400 160.776 C 74.400 161.009,74.580 161.200,74.800 161.200 C 75.020 161.200,75.162 161.065,75.115 160.900 C 75.068 160.735,75.282 160.150,75.590 159.600 C 75.900 159.047,76.161 157.438,76.175 156.000 C 76.198 153.586,76.263 153.402,77.080 153.430 C 77.564 153.446,77.881 153.331,77.785 153.175 C 77.688 153.019,77.877 152.668,78.204 152.396 C 78.840 151.869,79.042 151.003,78.443 151.373 C 77.701 151.832,78.961 148.276,79.859 147.377 C 80.377 146.860,80.794 146.203,80.787 145.918 C 80.779 145.622,80.452 145.786,80.023 146.300 C 79.610 146.795,79.152 147.200,79.005 147.200 C 78.859 147.200,79.158 146.683,79.670 146.052 C 80.181 145.421,80.718 144.971,80.863 145.053 C 81.007 145.134,81.140 143.824,81.157 142.140 C 81.193 138.650,81.120 138.831,82.532 138.714 C 83.565 138.628,83.600 138.545,83.600 136.138 L 83.600 133.651 84.869 133.525 C 86.146 133.399,86.159 133.379,86.470 130.900 C 86.505 130.625,86.683 130.400,86.867 130.400 C 87.050 130.400,87.155 130.265,87.100 130.100 C 87.045 129.935,87.180 129.728,87.400 129.640 C 88.163 129.334,88.775 128.194,88.787 127.053 C 88.798 126.113,88.942 125.944,89.585 126.112 C 90.708 126.406,91.229 125.559,91.321 123.292 C 91.397 121.397,91.445 121.319,92.500 121.409 C 93.195 121.468,93.618 121.299,93.650 120.951 C 93.750 119.847,93.806 119.661,94.133 119.333 C 94.598 118.869,95.344 118.895,95.694 119.387 C 95.856 119.614,95.991 119.305,95.994 118.700 C 95.997 118.062,96.220 117.600,96.525 117.600 C 97.242 117.600,98.800 115.420,98.800 114.416 C 98.800 113.790,99.059 113.600,99.913 113.600 C 100.830 113.600,101.041 113.412,101.114 112.532 C 101.222 111.220,101.220 111.222,102.532 111.114 C 103.404 111.042,103.600 110.827,103.600 109.945 C 103.600 109.076,103.829 108.813,104.763 108.608 C 105.532 108.439,106.005 108.036,106.160 107.416 C 106.297 106.869,106.858 106.319,107.509 106.092 C 108.240 105.837,108.645 105.396,108.690 104.807 C 108.774 103.680,108.839 103.621,110.093 103.517 C 110.803 103.458,111.083 103.231,110.997 102.782 C 110.928 102.424,110.990 101.967,111.136 101.766 C 111.551 101.190,112.984 100.150,112.694 100.633 C 112.552 100.872,112.660 101.067,112.936 101.067 C 113.211 101.067,113.474 100.612,113.520 100.056 C 113.611 98.953,114.313 98.303,115.100 98.592 C 115.557 98.759,115.755 98.208,115.708 96.904 C 115.698 96.632,115.850 96.507,116.045 96.628 C 116.240 96.749,116.400 96.677,116.400 96.468 C 116.400 96.260,116.625 96.097,116.900 96.107 C 118.145 96.154,118.710 95.962,118.693 95.500 C 118.633 93.890,118.832 93.600,120.000 93.600 C 121.067 93.600,121.200 93.467,121.200 92.400 C 121.200 91.333,121.333 91.200,122.400 91.200 C 123.467 91.200,123.600 91.067,123.600 90.000 C 123.600 88.844,123.669 88.798,125.500 88.739 C 126.545 88.706,127.655 88.660,127.967 88.637 C 128.279 88.615,128.564 88.192,128.600 87.698 C 128.682 86.582,128.811 86.454,130.024 86.272 C 130.787 86.157,131.027 85.849,131.125 84.863 C 131.251 83.602,131.254 83.600,133.625 83.600 C 135.234 83.600,136.015 83.439,136.046 83.100 C 136.072 82.825,136.117 82.330,136.146 82.000 C 136.186 81.558,136.806 81.368,138.500 81.280 C 140.635 81.169,141.017 80.942,140.843 79.888 C 140.815 79.717,141.229 79.863,141.764 80.213 C 142.703 80.828,142.731 80.817,142.630 79.891 C 142.572 79.364,142.722 78.909,142.962 78.879 C 143.203 78.849,144.343 78.753,145.496 78.665 C 146.648 78.577,147.898 78.256,148.272 77.953 C 148.825 77.505,148.892 77.502,148.629 77.940 C 148.366 78.375,148.464 78.394,149.135 78.035 C 149.592 77.790,150.129 77.298,150.329 76.940 C 150.653 76.361,151.397 76.157,154.200 75.875 C 155.476 75.747,156.053 75.199,155.789 74.366 C 155.562 73.651,157.902 73.255,160.613 73.550 C 160.840 73.575,161.066 73.116,161.114 72.530 C 161.228 71.156,160.714 71.297,166.200 71.132 C 170.842 70.992,170.996 70.959,170.881 70.129 C 170.709 68.894,170.898 68.850,176.929 68.745 C 181.061 68.674,182.400 68.525,182.400 68.138 C 182.400 67.856,182.652 67.722,182.960 67.840 C 183.324 67.980,183.499 67.800,183.460 67.327 C 183.403 66.635,184.196 66.600,200.000 66.600 C 215.804 66.600,216.597 66.635,216.540 67.327 C 216.501 67.800,216.676 67.980,217.040 67.840 C 217.348 67.722,217.600 67.856,217.600 68.139 C 217.600 68.529,218.972 68.676,223.289 68.748 C 228.542 68.835,230.430 69.230,229.223 69.989 C 229.039 70.105,229.139 70.432,229.444 70.716 C 229.787 71.034,230.000 71.067,230.000 70.802 C 230.000 70.501,230.232 70.496,230.774 70.786 C 231.199 71.014,233.179 71.200,235.174 71.200 C 238.970 71.200,239.178 71.320,238.841 73.319 C 238.812 73.494,239.015 73.608,239.294 73.572 C 241.896 73.230,244.441 73.642,244.211 74.366 C 243.947 75.199,244.524 75.747,245.800 75.875 C 248.603 76.157,249.347 76.361,249.671 76.940 C 249.871 77.298,250.408 77.790,250.865 78.035 C 251.536 78.394,251.634 78.375,251.371 77.940 C 251.108 77.502,251.175 77.505,251.728 77.953 C 252.102 78.256,253.352 78.577,254.504 78.665 C 255.657 78.753,256.797 78.849,257.038 78.879 C 257.278 78.909,257.429 79.351,257.373 79.862 C 257.283 80.684,257.366 80.739,258.096 80.348 C 258.768 79.989,258.880 80.015,258.698 80.489 C 258.519 80.954,258.965 81.089,260.914 81.159 C 263.561 81.255,264.052 81.411,263.963 82.130 C 263.800 83.450,264.046 83.600,266.375 83.600 C 268.746 83.600,268.749 83.602,268.875 84.863 C 268.973 85.849,269.213 86.157,269.976 86.272 C 271.189 86.454,271.318 86.582,271.400 87.698 C 271.436 88.192,271.721 88.615,272.033 88.637 C 272.345 88.660,273.455 88.706,274.500 88.739 C 276.331 88.798,276.400 88.844,276.400 90.000 C 276.400 91.067,276.533 91.200,277.600 91.200 C 278.667 91.200,278.800 91.333,278.800 92.400 C 278.800 93.467,278.933 93.600,280.000 93.600 C 281.168 93.600,281.367 93.890,281.307 95.500 C 281.290 95.962,281.855 96.154,283.100 96.107 C 283.375 96.097,283.600 96.260,283.600 96.468 C 283.600 96.677,283.760 96.749,283.955 96.628 C 284.150 96.507,284.302 96.632,284.292 96.904 C 284.245 98.208,284.443 98.759,284.900 98.592 C 285.687 98.303,286.389 98.953,286.480 100.056 C 286.526 100.612,286.789 101.067,287.064 101.067 C 287.340 101.067,287.448 100.872,287.306 100.633 C 287.016 100.150,288.449 101.190,288.864 101.766 C 289.010 101.967,289.072 102.424,289.003 102.782 C 288.917 103.232,289.198 103.458,289.917 103.518 C 291.055 103.612,291.699 104.308,291.400 105.121 C 291.295 105.407,291.372 105.541,291.570 105.418 C 291.769 105.295,292.003 105.410,292.091 105.673 C 292.218 106.055,296.161 106.292,298.004 106.029 C 298.116 106.013,298.735 105.505,299.379 104.900 C 300.023 104.295,301.089 103.608,301.748 103.373 C 302.518 103.099,303.099 102.518,303.373 101.749 C 303.608 101.090,304.227 100.112,304.749 99.575 C 305.613 98.688,305.659 98.678,305.254 99.465 C 305.009 99.941,304.582 100.422,304.305 100.534 C 304.005 100.654,304.092 100.750,304.519 100.768 C 305.236 100.800,306.526 98.528,306.143 97.909 C 306.042 97.744,306.209 97.705,306.515 97.823 C 307.221 98.094,308.166 96.992,307.773 96.356 C 307.585 96.052,307.646 95.981,307.938 96.162 C 308.192 96.319,308.400 96.269,308.400 96.051 C 308.400 95.832,308.771 95.536,309.224 95.392 C 309.678 95.248,310.245 94.700,310.485 94.173 C 310.725 93.646,311.265 93.106,311.685 92.973 C 312.105 92.840,312.638 92.316,312.868 91.809 C 313.099 91.303,313.690 90.705,314.181 90.482 C 315.150 90.040,316.589 87.429,316.205 86.807 C 316.074 86.596,316.425 86.309,316.984 86.168 C 317.543 86.028,318.000 85.742,318.000 85.533 C 318.000 85.324,318.178 85.263,318.395 85.397 C 318.614 85.533,318.693 85.388,318.572 85.072 C 318.310 84.388,319.511 83.080,320.170 83.333 C 320.426 83.432,320.663 83.157,320.696 82.724 C 320.777 81.652,321.611 80.719,322.264 80.969 C 322.559 81.082,322.800 80.990,322.800 80.764 C 322.800 80.538,323.008 80.481,323.262 80.638 C 323.545 80.813,323.615 80.748,323.443 80.470 C 322.976 79.715,323.976 78.300,324.820 78.521 C 325.590 78.722,326.142 77.825,325.914 76.741 C 325.851 76.444,326.019 76.243,326.286 76.295 C 327.296 76.494,329.017 75.582,328.386 75.183 C 327.988 74.931,327.960 74.810,328.300 74.806 C 328.575 74.803,328.800 74.530,328.800 74.200 C 328.800 73.800,329.200 73.600,330.000 73.600 C 331.061 73.600,331.200 73.464,331.200 72.427 C 331.200 71.444,331.379 71.233,332.300 71.127 C 333.164 71.027,333.427 70.764,333.527 69.900 C 333.644 68.879,334.302 68.532,335.700 68.753 C 335.976 68.796,336.048 68.491,336.162 66.800 C 336.201 66.233,336.392 66.159,338.100 66.046 C 338.485 66.021,338.779 65.865,338.753 65.700 C 338.531 64.295,338.869 63.600,339.776 63.600 C 341.015 63.600,341.148 63.363,341.286 60.898 C 341.349 59.786,341.535 58.960,341.700 59.062 C 341.865 59.164,342.000 58.442,342.000 57.457 C 342.000 56.472,341.816 55.575,341.590 55.463 C 341.365 55.352,341.410 55.305,341.690 55.361 C 342.399 55.502,342.579 58.693,341.924 59.530 C 341.454 60.131,341.472 60.143,342.100 59.651 C 343.229 58.765,343.044 55.956,341.784 54.861 C 341.225 54.374,340.892 53.774,341.045 53.527 C 341.215 53.252,341.144 53.188,340.862 53.362 C 340.608 53.519,340.400 53.446,340.400 53.200 C 340.400 52.954,340.232 52.856,340.028 52.983 C 339.823 53.109,339.525 53.002,339.366 52.745 C 339.173 52.433,339.251 52.384,339.600 52.600 C 339.946 52.814,340.027 52.767,339.838 52.462 C 339.681 52.208,339.333 52.000,339.065 52.000 C 338.796 52.000,338.324 51.650,338.015 51.221 C 337.707 50.793,337.279 50.551,337.065 50.683 C 336.850 50.816,336.804 50.717,336.962 50.462 C 337.133 50.184,336.985 50.000,336.590 50.000 C 336.229 50.000,336.005 49.784,336.094 49.519 C 336.441 48.477,333.729 46.400,332.020 46.400 C 331.269 46.400,330.934 45.563,331.165 44.263 C 331.198 44.077,330.994 44.007,330.712 44.108 C 330.198 44.291,328.000 43.366,328.000 42.966 C 328.000 42.849,328.180 42.864,328.400 43.000 C 329.074 43.416,328.845 42.845,328.000 42.000 C 327.157 41.157,326.583 40.926,326.997 41.595 C 327.137 41.822,326.977 41.889,326.621 41.753 C 326.279 41.622,325.997 41.219,325.994 40.857 C 325.990 40.480,325.862 40.371,325.694 40.600 C 325.230 41.231,324.520 41.226,323.989 40.587 C 323.721 40.264,323.636 40.000,323.800 40.000 C 323.964 40.000,323.874 39.730,323.600 39.400 C 323.326 39.070,322.609 38.800,322.006 38.800 C 321.078 38.800,320.927 38.649,321.019 37.811 C 321.110 36.975,320.921 36.784,319.791 36.572 C 318.922 36.409,318.525 36.140,318.655 35.801 C 318.765 35.515,318.659 35.160,318.421 35.013 C 318.182 34.865,318.063 34.622,318.155 34.472 C 318.248 34.323,317.867 34.173,317.309 34.139 C 316.751 34.105,315.861 33.610,315.331 33.039 C 314.801 32.468,314.200 32.000,313.994 32.000 C 313.789 32.000,313.341 31.460,313.000 30.800 C 312.659 30.140,312.114 29.600,311.790 29.600 C 311.465 29.600,311.200 29.459,311.200 29.287 C 311.200 29.115,310.722 28.935,310.137 28.887 C 309.199 28.809,307.682 27.388,307.880 26.771 C 307.920 26.645,307.648 26.542,307.276 26.542 C 304.030 26.545,303.600 26.413,303.600 25.414 C 303.600 24.146,302.510 23.574,300.549 23.812 C 299.561 23.932,299.200 23.871,299.551 23.645 C 300.226 23.210,299.731 22.264,298.980 22.552 C 298.633 22.685,298.520 22.553,298.663 22.180 C 298.786 21.861,298.731 21.587,298.543 21.570 C 296.262 21.373,294.940 20.446,295.726 19.596 C 296.094 19.198,296.088 19.146,295.700 19.365 C 295.425 19.520,295.199 19.502,295.197 19.324 C 295.196 19.146,294.356 18.961,293.331 18.914 C 291.283 18.820,290.789 18.520,290.699 17.318 C 290.666 16.877,290.450 16.518,290.219 16.521 C 287.531 16.554,285.595 16.332,285.791 16.015 C 286.148 15.437,284.512 13.982,283.809 14.252 C 283.474 14.380,283.200 14.303,283.200 14.080 C 283.200 13.857,282.842 13.768,282.405 13.883 C 281.901 14.015,281.519 13.855,281.363 13.448 C 281.227 13.094,280.943 12.912,280.731 13.042 C 280.520 13.173,280.404 12.951,280.473 12.550 C 280.547 12.124,280.349 11.799,280.000 11.770 C 279.670 11.744,279.265 11.672,279.100 11.611 C 278.466 11.377,277.958 11.298,276.757 11.250 C 275.855 11.214,275.575 11.043,275.734 10.627 C 275.888 10.225,275.719 10.100,275.166 10.207 C 274.662 10.304,274.478 10.197,274.655 9.911 C 274.833 9.623,274.702 9.552,274.286 9.712 C 273.827 9.888,273.707 9.787,273.869 9.363 C 273.995 9.035,273.941 8.796,273.749 8.831 C 272.044 9.142,268.800 8.729,268.800 8.200 C 268.800 7.870,268.536 7.600,268.213 7.600 C 267.889 7.600,267.712 7.374,267.818 7.098 C 267.956 6.739,267.354 6.561,265.705 6.472 C 263.816 6.371,263.256 6.169,262.600 5.355 C 261.681 4.214,260.509 3.988,254.600 3.814 C 249.172 3.653,249.200 3.657,249.200 3.176 C 249.200 2.943,249.380 2.864,249.600 3.000 C 250.163 3.348,250.075 2.732,249.443 1.900 C 249.151 1.515,248.589 1.200,248.194 1.200 C 247.508 1.200,247.507 1.235,248.180 1.978 C 248.857 2.726,248.852 2.754,248.070 2.695 C 247.622 2.662,247.264 2.536,247.275 2.417 C 247.343 1.668,247.134 1.484,246.800 2.000 C 246.469 2.513,246.411 2.498,246.406 1.900 C 246.402 1.377,246.071 1.202,245.100 1.206 C 244.072 1.211,243.926 1.301,244.400 1.637 C 244.933 2.014,244.933 2.043,244.400 1.899 C 244.070 1.810,243.733 1.301,243.650 0.769 C 243.510 -0.140,243.480 -0.150,243.178 0.600 L 242.856 1.400 242.800 0.600 L 242.744 -0.200 242.400 0.600 C 242.106 1.284,242.052 1.299,242.028 0.700 C 241.994 -0.151,241.200 -0.247,241.200 0.600 C 241.200 1.540,237.323 1.446,237.076 0.500 C 236.902 -0.167,236.891 -0.167,236.846 0.500 C 236.790 1.351,235.600 1.447,235.600 0.600 C 235.600 -0.400,163.612 -0.300,163.572 0.700 C 163.548 1.294,163.495 1.278,163.226 0.600 L 162.908 -0.200 162.700 0.600 C 162.531 1.253,162.484 1.271,162.446 0.700 C 162.408 0.125,162.012 0.000,160.229 0.000 C 158.498 0.000,158.022 0.142,157.876 0.700 C 157.702 1.367,157.691 1.367,157.646 0.700 C 157.590 -0.152,156.800 -0.245,156.800 0.600 M250.397 1.611 C 249.962 1.885,249.942 1.989,250.324 1.994 C 250.612 1.997,250.758 2.144,250.650 2.319 C 250.542 2.495,250.638 2.900,250.864 3.219 C 251.204 3.699,251.238 3.683,251.060 3.126 C 250.942 2.755,251.060 2.373,251.322 2.276 C 251.646 2.157,251.670 1.960,251.397 1.667 C 251.135 1.386,250.783 1.366,250.397 1.611 M252.006 2.251 C 252.024 3.259,252.683 3.621,253.222 2.919 C 253.525 2.524,253.616 2.333,253.424 2.497 C 253.231 2.660,252.832 2.593,252.537 2.348 C 252.242 2.103,252.003 2.059,252.006 2.251 M343.309 57.600 C 343.309 58.590,343.387 58.995,343.482 58.500 C 343.578 58.005,343.578 57.195,343.482 56.700 C 343.387 56.205,343.309 56.610,343.309 57.600 M155.280 75.280 C 154.907 75.653,154.689 75.647,154.300 75.251 C 153.899 74.844,153.919 74.768,154.400 74.871 C 154.761 74.949,154.949 74.761,154.871 74.400 C 154.768 73.919,154.844 73.899,155.251 74.300 C 155.647 74.689,155.653 74.907,155.280 75.280 M245.100 74.500 C 245.045 74.775,245.270 74.942,245.600 74.871 C 246.081 74.768,246.101 74.844,245.700 75.251 C 245.108 75.854,244.138 75.148,244.578 74.435 C 244.940 73.849,245.223 73.884,245.100 74.500 M302.940 101.811 C 302.811 102.147,302.322 102.626,301.853 102.876 C 301.097 103.278,301.113 103.210,302.000 102.272 C 303.168 101.036,303.254 100.994,302.940 101.811 M299.637 105.100 C 299.107 105.595,298.847 106.000,299.060 106.000 C 299.693 106.000,300.922 104.959,300.755 104.565 C 300.670 104.364,300.166 104.605,299.637 105.100 M2.846 159.033 C 2.381 159.624,2.000 159.944,2.000 159.743 C 2.000 159.193,3.251 157.518,3.486 157.753 C 3.599 157.866,3.311 158.442,2.846 159.033 M234.900 161.876 C 235.285 161.976,235.915 161.976,236.300 161.876 C 236.685 161.775,236.370 161.693,235.600 161.693 C 234.830 161.693,234.515 161.775,234.900 161.876 M242.313 161.895 C 243.476 161.976,245.276 161.976,246.313 161.893 C 247.351 161.811,246.400 161.745,244.200 161.746 C 242.000 161.747,241.151 161.814,242.313 161.895 M186.851 163.075 C 187.334 163.669,187.312 163.717,186.667 163.475 C 186.264 163.324,160.659 163.200,129.767 163.200 C 92.589 163.200,73.600 163.065,73.600 162.800 C 73.600 162.002,186.201 162.275,186.851 163.075 M234.840 162.769 C 234.056 162.972,234.261 163.095,235.957 163.443 C 237.099 163.677,238.129 163.715,238.245 163.528 C 238.361 163.340,238.649 163.306,238.885 163.452 C 239.396 163.769,244.259 163.691,246.800 163.327 C 248.570 163.073,248.580 163.063,247.400 162.737 C 246.047 162.363,236.316 162.388,234.840 162.769 M189.213 233.091 C 188.685 233.686,188.705 233.720,189.413 233.428 C 189.846 233.250,190.425 233.096,190.700 233.086 C 190.975 233.075,191.200 232.917,191.200 232.733 C 191.200 232.155,189.825 232.402,189.213 233.091 M5.486 248.700 C 5.831 249.122,5.942 249.161,5.766 248.800 C 5.601 248.464,5.626 248.340,5.822 248.519 C 6.469 249.109,6.325 250.719,5.636 250.602 C 5.286 250.542,5.045 250.293,5.100 250.047 C 5.155 249.801,5.031 249.600,4.825 249.600 C 4.619 249.600,4.477 249.240,4.510 248.800 C 4.584 247.819,4.749 247.802,5.486 248.700 M8.958 266.158 C 9.072 266.785,9.274 267.407,9.407 267.540 C 9.540 267.673,9.556 267.269,9.442 266.642 C 9.328 266.015,9.126 265.393,8.993 265.260 C 8.860 265.127,8.844 265.531,8.958 266.158 M10.000 268.044 C 9.481 268.417,9.488 268.447,10.051 268.269 C 10.409 268.155,10.915 268.273,11.175 268.531 C 11.537 268.891,11.585 268.837,11.381 268.300 C 11.073 267.492,10.830 267.446,10.000 268.044 M83.737 274.270 C 83.886 274.419,83.651 274.920,83.215 275.384 C 82.580 276.060,82.493 276.462,82.777 277.414 L 83.131 278.600 83.194 277.400 C 83.249 276.336,83.299 276.291,83.631 277.000 C 83.935 277.648,83.980 277.549,83.870 276.482 C 83.795 275.758,83.883 275.072,84.067 274.959 C 84.561 274.653,84.470 274.000,83.933 274.000 C 83.677 274.000,83.588 274.122,83.737 274.270 M81.989 275.220 C 81.748 275.671,81.625 276.526,81.715 277.120 C 81.868 278.123,81.884 278.110,81.940 276.929 C 81.973 276.229,82.283 275.374,82.629 275.029 C 82.974 274.683,83.071 274.400,82.843 274.400 C 82.615 274.400,82.231 274.769,81.989 275.220 M18.800 289.920 C 18.800 290.334,19.666 291.200,20.080 291.200 C 20.256 291.200,20.400 291.020,20.400 290.800 C 20.400 290.580,20.175 290.445,19.900 290.500 C 19.625 290.555,19.445 290.375,19.500 290.100 C 19.555 289.825,19.420 289.600,19.200 289.600 C 18.980 289.600,18.800 289.744,18.800 289.920 M24.000 299.538 C 24.000 299.724,24.368 300.209,24.817 300.616 C 25.533 301.264,25.602 301.271,25.374 300.678 C 25.231 300.305,24.943 300.000,24.734 300.000 C 24.524 300.000,24.464 299.820,24.600 299.600 C 24.736 299.380,24.657 299.200,24.424 299.200 C 24.191 299.200,24.000 299.352,24.000 299.538 M82.824 312.400 C 82.591 314.842,82.872 362.229,83.121 362.480 C 83.275 362.634,83.348 352.779,83.285 340.580 C 83.222 328.381,83.312 318.399,83.485 318.398 C 83.658 318.396,83.811 317.316,83.825 315.998 C 83.839 314.679,83.716 313.600,83.552 313.600 C 83.387 313.600,83.178 313.105,83.087 312.500 C 82.924 311.424,82.918 311.422,82.824 312.400 M81.728 314.400 C 81.728 315.830,81.801 316.415,81.889 315.700 C 81.978 314.985,81.978 313.815,81.889 313.100 C 81.801 312.385,81.728 312.970,81.728 314.400 M82.186 340.000 C 82.186 351.770,82.237 356.585,82.300 350.700 C 82.362 344.815,82.362 335.185,82.300 329.300 C 82.237 323.415,82.186 328.230,82.186 340.000 M269.600 323.176 L 268.200 323.930 269.300 324.208 C 270.887 324.610,272.483 324.125,272.322 323.290 C 272.138 322.335,271.234 322.297,269.600 323.176 M59.600 345.600 C 59.169 345.866,59.186 346.043,59.688 346.545 C 60.027 346.884,60.445 347.035,60.617 346.881 C 60.788 346.726,60.821 346.789,60.690 347.020 C 60.559 347.251,60.811 347.664,61.250 347.938 C 61.997 348.405,62.016 348.378,61.556 347.518 C 61.286 347.013,61.102 346.549,61.147 346.486 C 61.417 346.108,60.047 345.323,59.600 345.600 M67.378 347.635 C 67.231 347.874,67.323 348.279,67.583 348.535 C 67.945 348.890,68.027 348.858,67.929 348.400 C 67.858 348.070,68.038 347.849,68.330 347.910 C 68.621 347.970,68.745 347.835,68.606 347.610 C 68.276 347.076,67.717 347.087,67.378 347.635 M273.969 388.967 C 273.953 388.985,273.880 389.303,273.809 389.672 C 273.660 390.443,274.622 390.240,274.931 389.436 C 275.071 389.072,274.243 388.668,273.969 388.967 " stroke="none" fill="#3c4e87" fill-rule="evenodd"></path></g></svg>