<?xml version="1.0" standalone="no"?>
<!DOCTYPE svg PUBLIC "-//W3C//DTD SVG 20010904//EN"
 "http://www.w3.org/TR/2001/REC-SVG-20010904/DTD/svg10.dtd">
<svg version="1.0" xmlns="http://www.w3.org/2000/svg"
 width="160.000000pt" height="160.000000pt" viewBox="0 0 160.000000 160.000000"
 preserveAspectRatio="xMidYMid meet">

<g transform="translate(0.000000,160.000000) scale(0.100000,-0.100000)"
fill="#000000" stroke="none">
<path d="M649 1586 c-298 -63 -531 -285 -610 -582 -16 -59 -22 -110 -22 -199
-1 -225 57 -378 212 -555 l30 -35 1 233 0 232 245 0 245 0 0 125 0 125 -235 0
c-274 0 -258 -9 -196 116 157 312 544 399 816 184 l50 -40 83 83 c45 45 81 88
80 96 -4 21 -130 114 -201 149 -110 53 -192 73 -317 78 -74 2 -138 -1 -181
-10z"/>
<path d="M850 805 l0 -125 241 0 c189 0 240 -3 237 -12 -3 -7 -13 -35 -22 -63
-28 -83 -103 -184 -181 -243 -194 -145 -442 -149 -639 -8 -36 26 -82 68 -101
93 l-35 46 0 -174 0 -174 46 -28 c126 -76 251 -110 404 -110 227 0 408 79 568
248 156 164 222 355 214 618 l-2 57 -365 0 -365 0 0 -125z"/>
</g>
</svg>
